<?xml version="1.0" encoding="utf-8"?>
<!-- Generator: Adobe Illustrator 18.1.1, SVG Export Plug-In . SVG Version: 6.00 Build 0)  -->
<svg version="1.1" id="Logo" xmlns="http://www.w3.org/2000/svg" xmlns:xlink="http://www.w3.org/1999/xlink" x="0px" y="0px"
	 viewBox="0 0 349.45 189.5" enable-background="new 0 0 349.45 189.5" xml:space="preserve">
<g>
	<defs>
		<rect id="SVGID_3_" x="-0.01" y="0" width="63.26" height="89.47"/>
	</defs>
	<clipPath id="SVGID_1_">
		<use xlink:href="#SVGID_3_"  overflow="visible"/>
	</clipPath>
	<g clip-path="url(#SVGID_1_)">
		<path fill="#FFFFFF" d="M34.93,53.28c0.2,0.3,0.4,0.6,0.6,0.9c0.55,0.82,1.09,1.64,1.64,2.45c0.81,1.21,1.61,2.41,2.42,3.62
			c0.99,1.48,1.98,2.96,2.96,4.44c1.08,1.61,2.15,3.22,3.24,4.84c1.09,1.63,2.17,3.26,3.27,4.88c1.02,1.52,2.04,3.05,3.06,4.58
			c0.86,1.28,1.72,2.56,2.57,3.85c0.62,0.93,1.24,1.85,1.86,2.78c0.29,0.44,0.58,0.87,0.88,1.31c0.01,0.02,0.03,0.04,0.04,0.06
			c0.45,0.68,1.06,1.21,1.87,1.44c0.75,0.21,1.74,0.11,2.4-0.31c0.67-0.43,1.25-1.07,1.44-1.87c0.18-0.79,0.15-1.71-0.31-2.4
			c-0.2-0.3-0.4-0.6-0.6-0.9c-0.55-0.82-1.09-1.64-1.64-2.45c-0.81-1.21-1.61-2.41-2.42-3.62c-0.99-1.48-1.98-2.96-2.96-4.44
			c-1.08-1.61-2.15-3.22-3.24-4.84c-1.09-1.63-2.17-3.26-3.27-4.88c-1.02-1.52-2.04-3.05-3.06-4.58c-0.86-1.28-1.72-2.56-2.57-3.85
			c-0.62-0.93-1.24-1.85-1.86-2.78c-0.29-0.44-0.58-0.87-0.88-1.31c-0.01-0.02-0.03-0.04-0.04-0.06c-0.45-0.68-1.06-1.21-1.87-1.44
			c-0.75-0.21-1.74-0.11-2.4,0.31c-0.67,0.43-1.25,1.07-1.44,1.87C34.43,51.67,34.46,52.59,34.93,53.28z"/>
		<path fill="#FFFFFF" d="M6.24,86.35c0-0.75,0-1.49,0-2.24c0-2.01,0-4.03,0-6.04c0-2.99,0-5.98,0-8.96c0-3.65,0-7.29,0-10.93
			c0-3.98,0-7.95,0-11.93c0-4.04,0-8.08,0-12.13c0-3.74,0-7.48,0-11.23c0-3.17,0-6.35,0-9.52c0-2.28,0-4.57,0-6.85
			c0-1.08,0.01-2.16,0-3.24c0-0.05,0-0.09,0-0.14C5.2,4.17,4.16,5.21,3.12,6.25c2.92-0.01,5.83-0.01,8.75-0.01
			c5.16-0.01,10.32-0.01,15.48,0c2.65,0.01,5.31-0.08,7.94,0.27c-0.28-0.04-0.55-0.07-0.83-0.11c2.4,0.33,4.76,0.96,7,1.9
			c-0.25-0.1-0.5-0.21-0.74-0.31c2.04,0.87,3.96,1.98,5.73,3.33c-0.21-0.16-0.42-0.33-0.63-0.49c1.69,1.31,3.2,2.81,4.51,4.49
			c-0.16-0.21-0.33-0.42-0.49-0.63c1.27,1.65,2.33,3.46,3.15,5.39c-0.1-0.25-0.21-0.5-0.31-0.74c0.82,1.97,1.38,4.03,1.66,6.15
			c-0.04-0.28-0.07-0.55-0.11-0.83c0.29,2.21,0.28,4.45-0.02,6.65c0.04-0.28,0.07-0.55,0.11-0.83c-0.28,2.01-0.8,3.98-1.59,5.85
			c0.1-0.25,0.21-0.5,0.31-0.74c-0.76,1.8-1.76,3.48-2.95,5.03c0.16-0.21,0.33-0.42,0.49-0.63c-1.35,1.74-2.92,3.28-4.66,4.62
			c0.21-0.16,0.42-0.33,0.63-0.49c-1.96,1.5-4.1,2.77-6.37,3.73c0.25-0.1,0.5-0.21,0.74-0.31c-1.18,0.49-2.42,0.97-3.69,1.14
			c0.28-0.04,0.55-0.07,0.83-0.11c-0.13,0.02-0.27,0.03-0.4,0.03c-1.63,0.01-3.2,1.43-3.12,3.12c0.07,1.69,1.37,3.13,3.12,3.12
			c2.09-0.01,4.21-0.95,6.07-1.77c2.81-1.24,5.39-2.96,7.72-4.96c2.79-2.4,5.19-5.43,6.73-8.79c1.95-4.26,2.82-8.98,2.39-13.66
			c-0.43-4.68-1.93-9.25-4.62-13.12c-2.67-3.84-6.22-7.03-10.39-9.14c-4.42-2.25-9.28-3.37-14.24-3.38C28.14,0,24.95,0,21.77,0
			c-3.79,0-7.58,0-11.37,0.01c-2.31,0-4.63,0.01-6.94,0.01c-0.11,0-0.22,0-0.34,0C1.44,0.01,0,1.44,0,3.13c0,0.75,0,1.49,0,2.24
			c0,2.01,0,4.03,0,6.04c0,2.99,0,5.98,0,8.96c0,3.65,0,7.29,0,10.93c0,3.98,0,7.95,0,11.93c0,4.04,0,8.08,0,12.13
			c0,3.75,0,7.48,0,11.23c0,3.17,0,6.35,0,9.52c0,2.28,0,4.57,0,6.85c0,1.08-0.01,2.16,0,3.24c0,0.05,0,0.09,0,0.14
			c0,1.63,1.44,3.2,3.12,3.12C4.81,89.4,6.24,88.1,6.24,86.35z"/>
		<path fill="#FFFFFF" d="M50.82,84.78c-0.33-0.49-0.66-0.99-0.99-1.49c-0.87-1.31-1.73-2.61-2.6-3.91
			c-1.22-1.84-2.44-3.68-3.67-5.51c-1.39-2.1-2.79-4.19-4.18-6.29c-1.38-2.08-2.76-4.15-4.14-6.23c-1.19-1.79-2.39-3.59-3.58-5.38
			c-0.82-1.23-1.64-2.47-2.46-3.69c-0.21-0.32-0.42-0.63-0.63-0.95c-0.05-0.07-0.09-0.15-0.14-0.21c-0.01-0.01-0.02-0.02-0.02-0.04
			c0,0-0.49-0.63-0.49-0.63c-0.56-0.6-1.4-0.89-2.21-0.92c-0.01,0-0.02,0-0.04,0c-1.75-0.04-3.51,0-5.25,0c-2.08,0-4.15,0-6.22,0
			c-0.12,0-0.24,0-0.36,0c-1.69,0-3.12,1.43-3.12,3.12c0,1.12,0,2.24,0,3.35c0,2.68,0.01,5.37,0.01,8.05c0,3.25,0.01,6.5,0.01,9.74
			c0,2.8,0.01,5.61,0.01,8.42c0,1.36-0.01,2.72,0,4.08c0,0.02,0,0.04,0,0.06c0,0.8,0.35,1.64,0.92,2.21
			c0.54,0.54,1.43,0.95,2.21,0.92c0.81-0.04,1.64-0.3,2.21-0.92c0.56-0.61,0.92-1.36,0.92-2.21c0-1.12,0-2.24,0-3.35
			c0-2.68-0.01-5.37-0.01-8.05c0-3.25-0.01-6.5-0.01-9.74c0-2.8-0.01-5.61-0.01-8.42c0-1.36,0.02-2.72,0-4.08c0-0.02,0-0.04,0-0.06
			c-1.04,1.04-2.08,2.08-3.12,3.12c1.34,0,2.68,0,4.02,0c2.13,0,4.25,0,6.38,0c0.49,0,0.98,0,1.47,0c-0.9-0.52-1.79-1.03-2.69-1.54
			c0.2,0.3,0.4,0.6,0.6,0.9c0.54,0.82,1.09,1.63,1.63,2.45c0.81,1.21,1.61,2.42,2.41,3.63c0.98,1.48,1.96,2.95,2.94,4.43
			c1.08,1.62,2.15,3.23,3.22,4.85c1.09,1.63,2.17,3.26,3.26,4.89c1.01,1.52,2.02,3.04,3.03,4.56c0.85,1.28,1.71,2.57,2.56,3.85
			c0.61,0.93,1.23,1.85,1.85,2.77c0.29,0.44,0.58,0.88,0.87,1.32c0.01,0.02,0.03,0.04,0.04,0.06c0.45,0.68,1.06,1.21,1.87,1.44
			c0.75,0.21,1.74,0.11,2.4-0.31c0.67-0.43,1.25-1.07,1.44-1.87C51.32,86.39,51.29,85.47,50.82,84.78z"/>
		<path fill="#FFFFFF" d="M10.71,13.38c0,0.97,0,1.94,0,2.91c0,2.33,0,4.67,0,7c0,2.82,0,5.64,0,8.46c0,2.44,0,4.87,0,7.31
			c0,1.18-0.01,2.37,0,3.55c0,0.02,0,0.03,0,0.05c0,1.68,1.43,3.12,3.12,3.12c0.71,0,1.43,0,2.14,0c1.65,0,3.3,0,4.95-0.01
			c1.85,0,3.69,0,5.54-0.01c1.31,0,2.62,0,3.93-0.01c0.32,0,0.65,0.01,0.97-0.01c1.04-0.05,2.08-0.19,3.11-0.37
			c1.26-0.21,2.51-0.54,3.71-0.98c1.69-0.62,3.34-1.39,4.8-2.47c0.87-0.65,1.72-1.33,2.45-2.13c0.77-0.84,1.48-1.77,2.05-2.76
			c1.33-2.28,1.97-4.81,2.2-7.42c0.11-1.24,0.1-2.51-0.03-3.75c-0.14-1.37-0.35-2.75-0.79-4.06c-0.74-2.26-1.93-4.33-3.57-6.05
			c-0.74-0.78-1.6-1.46-2.48-2.09c-0.63-0.45-1.31-0.84-2-1.19c-1.47-0.72-3.02-1.3-4.61-1.67c-1.2-0.28-2.42-0.45-3.65-0.55
			c-0.31-0.03-0.61-0.04-0.93-0.04c-0.97,0-1.95,0-2.92,0.01c-1.74,0-3.47,0.01-5.21,0.01c-1.82,0-3.64,0.01-5.46,0.01
			c-1.22,0-2.45,0-3.67,0.01c-0.18,0-0.35,0-0.53,0c-0.8,0-1.64,0.35-2.21,0.92C11.08,11.71,10.68,12.6,10.71,13.38
			c0.04,0.81,0.3,1.64,0.92,2.21c0.61,0.56,1.36,0.92,2.21,0.92c0.9,0,1.79,0,2.69-0.01c1.99,0,3.97-0.01,5.96-0.01
			c2.04,0,4.08-0.01,6.12-0.01c1.04,0,2.08-0.01,3.12-0.01c0.48,0,0.97,0.05,1.45,0.1c0.12,0.02,0.25,0.03,0.37,0.05
			c-0.28-0.04-0.55-0.07-0.83-0.11c1.23,0.17,2.44,0.44,3.63,0.84c0.41,0.14,0.81,0.29,1.21,0.46c-0.25-0.1-0.5-0.21-0.74-0.31
			c1.18,0.5,2.29,1.13,3.3,1.91c-0.21-0.16-0.42-0.33-0.63-0.49c0.83,0.64,1.58,1.39,2.23,2.22c-0.16-0.21-0.33-0.42-0.49-0.63
			c0.63,0.83,1.15,1.73,1.56,2.68c-0.1-0.25-0.21-0.5-0.31-0.74c0.5,1.2,0.83,2.46,1,3.74c-0.04-0.28-0.07-0.55-0.11-0.83
			c0.22,1.66,0.22,3.35,0,5.01c0.04-0.28,0.07-0.55,0.11-0.83c-0.18,1.27-0.49,2.52-0.99,3.71c0.1-0.25,0.21-0.5,0.31-0.74
			c-0.41,0.97-0.94,1.88-1.59,2.72c0.16-0.21,0.33-0.42,0.49-0.63c-0.67,0.86-1.45,1.63-2.3,2.3c0.21-0.16,0.42-0.33,0.63-0.49
			c-1.06,0.82-2.23,1.48-3.46,2c0.25-0.1,0.5-0.21,0.74-0.31c-1.36,0.57-2.79,0.98-4.24,1.24c-0.32,0.06-0.65,0.11-0.97,0.16
			c0.28-0.04,0.55-0.07,0.83-0.11c-0.61,0.08-1.23,0.15-1.84,0.16c-0.76,0.01-1.52,0-2.28,0c-1.9,0-3.8,0-5.7,0.01
			c-2,0-4.01,0.01-6.01,0.01c-1.07,0-2.13-0.01-3.2,0c-0.02,0-0.03,0-0.05,0c1.04,1.04,2.08,2.08,3.12,3.12c0-0.97,0-1.94,0-2.91
			c0-2.33,0-4.67,0-7c0-2.82,0-5.64,0-8.46c0-2.44,0-4.87,0-7.31c0-1.18,0.01-2.37,0-3.55c0-0.02,0-0.03,0-0.05
			c0-0.8-0.35-1.64-0.92-2.21c-0.54-0.54-1.43-0.95-2.21-0.92c-0.81,0.04-1.64,0.3-2.21,0.92C11.07,11.78,10.71,12.53,10.71,13.38z"
			/>
	</g>
</g>
<path fill="#FFFFFF" d="M120.29,29.16c0.99,0,1.79,0.34,2.41,1.03c0.69,0.69,1.03,1.53,1.03,2.52v51.54c0,0.92-0.34,1.72-1.03,2.41
	c-0.69,0.69-1.49,1.03-2.41,1.03c-0.99,0-1.83-0.34-2.52-1.03c-0.61-0.69-0.92-1.49-0.92-2.41V70.62l1.95-0.92
	c0,2.14-0.61,4.31-1.83,6.53c-1.15,2.21-2.75,4.28-4.81,6.18c-2.06,1.91-4.5,3.47-7.33,4.7c-2.75,1.15-5.73,1.72-8.93,1.72
	c-5.19,0-9.85-1.34-13.97-4.01c-4.05-2.67-7.25-6.34-9.62-10.99c-2.29-4.66-3.44-9.89-3.44-15.69c0-5.96,1.18-11.19,3.55-15.69
	c2.37-4.58,5.57-8.17,9.62-10.77c4.05-2.6,8.63-3.89,13.74-3.89c3.28,0,6.34,0.57,9.16,1.72c2.9,1.15,5.42,2.71,7.56,4.7
	c2.14,1.99,3.78,4.28,4.92,6.87c1.22,2.52,1.83,5.15,1.83,7.9l-2.41-1.72V32.71c0-0.99,0.31-1.83,0.92-2.52
	C118.46,29.5,119.3,29.16,120.29,29.16z M96.47,82.42c4.05,0,7.63-1.03,10.77-3.09c3.13-2.14,5.57-5.04,7.33-8.7
	c1.83-3.74,2.75-7.9,2.75-12.48c0-4.5-0.92-8.55-2.75-12.14c-1.76-3.59-4.2-6.45-7.33-8.59c-3.13-2.14-6.72-3.21-10.77-3.21
	c-3.97,0-7.56,1.03-10.77,3.09c-3.13,2.06-5.61,4.89-7.44,8.47c-1.76,3.59-2.63,7.71-2.63,12.37c0,4.58,0.88,8.74,2.63,12.48
	c1.83,3.66,4.31,6.57,7.44,8.7C88.83,81.39,92.42,82.42,96.47,82.42z M139.04,27.9c0.61,0,1.22,0.19,1.83,0.57
	c0.61,0.38,1.07,0.95,1.37,1.72l20.04,47.64l-1.49,0.92l20.5-48.56c0.61-1.53,1.72-2.25,3.32-2.18c0.76,0,1.49,0.27,2.18,0.8
	c0.69,0.46,1.03,1.15,1.03,2.06c0,0.46-0.08,0.84-0.23,1.15c-0.08,0.23-0.15,0.5-0.23,0.8l-22.45,52.68
	c-0.61,1.37-1.64,2.1-3.09,2.18c-0.69,0.08-1.37-0.08-2.06-0.46c-0.61-0.46-1.07-1.03-1.37-1.72l-22.56-52.68
	c-0.08-0.15-0.15-0.38-0.23-0.69c-0.08-0.31-0.11-0.61-0.11-0.92c0-0.84,0.31-1.6,0.92-2.29C137.02,28.25,137.89,27.9,139.04,27.9z
	 M207.68,84.25c0,0.92-0.34,1.72-1.03,2.41c-0.69,0.69-1.49,1.03-2.41,1.03c-0.99,0-1.83-0.34-2.52-1.03
	c-0.61-0.69-0.92-1.49-0.92-2.41V31.57c0-0.92,0.31-1.72,0.92-2.41c0.69-0.69,1.53-1.03,2.52-1.03c0.99,0,1.79,0.34,2.41,1.03
	c0.69,0.69,1.03,1.49,1.03,2.41V84.25z M204.24,20.46c-1.6,0-2.82-0.34-3.66-1.03c-0.76-0.76-1.15-1.83-1.15-3.21v-1.15
	c0-1.37,0.42-2.41,1.26-3.09c0.92-0.76,2.14-1.15,3.66-1.15c1.45,0,2.56,0.38,3.32,1.15c0.84,0.69,1.26,1.72,1.26,3.09v1.15
	c0,1.37-0.42,2.44-1.26,3.21C206.91,20.11,205.77,20.46,204.24,20.46z M253.13,27.79c5.04,0,9.05,1.03,12.03,3.09
	c3.05,1.99,5.23,4.73,6.53,8.25c1.37,3.44,2.06,7.25,2.06,11.45v33.67c0,0.92-0.34,1.72-1.03,2.41s-1.49,1.03-2.41,1.03
	c-1.07,0-1.91-0.34-2.52-1.03c-0.61-0.69-0.92-1.49-0.92-2.41V50.92c0-3.05-0.5-5.84-1.49-8.36c-0.99-2.52-2.63-4.54-4.92-6.07
	c-2.21-1.53-5.15-2.29-8.82-2.29c-3.28,0-6.41,0.76-9.39,2.29c-2.9,1.53-5.27,3.55-7.1,6.07s-2.75,5.31-2.75,8.36v33.33
	c0,0.92-0.34,1.72-1.03,2.41c-0.69,0.69-1.49,1.03-2.41,1.03c-1.07,0-1.91-0.34-2.52-1.03c-0.61-0.69-0.92-1.49-0.92-2.41V32.94
	c0-0.92,0.31-1.72,0.92-2.41c0.69-0.69,1.53-1.03,2.52-1.03c0.99,0,1.79,0.34,2.41,1.03c0.69,0.69,1.03,1.49,1.03,2.41v9.62
	l-2.63,4.12c0.15-2.44,0.92-4.77,2.29-6.99c1.45-2.29,3.28-4.31,5.5-6.07c2.21-1.83,4.66-3.25,7.33-4.24
	C247.63,28.32,250.38,27.79,253.13,27.79z"/>
<path fill="#A62130" d="M129.12,108.18c1.53,0,2.75,0.53,3.66,1.6c0.99,0.99,1.49,2.25,1.49,3.78v68.94c0,1.68-0.57,3.09-1.72,4.24
	c-1.07,1.07-2.44,1.6-4.12,1.6c-0.76,0-1.6-0.15-2.52-0.46c-0.84-0.31-1.49-0.73-1.95-1.26l-47.07-61.04l2.63-1.49v58.98
	c0,1.45-0.5,2.71-1.49,3.78c-0.99,0.99-2.25,1.49-3.78,1.49c-1.6,0-2.9-0.5-3.89-1.49c-0.92-1.07-1.37-2.33-1.37-3.78v-69.06
	c0-1.76,0.57-3.17,1.72-4.24c1.15-1.07,2.52-1.6,4.12-1.6c0.84,0,1.72,0.19,2.63,0.57c0.99,0.31,1.72,0.8,2.18,1.49l45.92,59.78
	l-1.72,1.6v-58.06c0-1.53,0.5-2.79,1.49-3.78C126.33,108.72,127.59,108.18,129.12,108.18z M179.78,189.5
	c-6.34,0-11.84-1.3-16.49-3.89c-4.66-2.67-8.29-6.3-10.88-10.88c-2.52-4.66-3.78-9.96-3.78-15.92c0-6.72,1.33-12.45,4.01-17.18
	c2.75-4.81,6.3-8.47,10.65-10.99c4.35-2.6,8.97-3.89,13.86-3.89c3.74,0,7.29,0.76,10.65,2.29c3.36,1.45,6.34,3.51,8.93,6.18
	c2.67,2.6,4.77,5.69,6.3,9.28c1.53,3.51,2.33,7.37,2.41,11.57c-0.08,1.53-0.69,2.79-1.83,3.78c-1.15,0.99-2.48,1.49-4.01,1.49
	h-44.55l-2.75-9.73h43.06l-2.18,2.06v-2.86c-0.15-2.67-1.03-5-2.63-6.99c-1.6-2.06-3.59-3.63-5.96-4.7
	c-2.37-1.15-4.85-1.72-7.44-1.72c-2.29,0-4.51,0.38-6.64,1.15c-2.06,0.69-3.93,1.83-5.61,3.44c-1.6,1.6-2.9,3.74-3.89,6.41
	c-0.92,2.6-1.37,5.84-1.37,9.73c0,4.2,0.88,7.86,2.63,10.99c1.76,3.13,4.12,5.57,7.1,7.33c2.98,1.68,6.26,2.52,9.85,2.52
	c2.82,0,5.15-0.27,6.99-0.8c1.83-0.61,3.36-1.34,4.58-2.18c1.22-0.84,2.29-1.64,3.21-2.41c1.15-0.69,2.29-1.03,3.44-1.03
	c1.37,0,2.52,0.5,3.44,1.49c0.92,0.92,1.37,2.02,1.37,3.32c0,1.68-0.84,3.21-2.52,4.58c-2.06,1.99-4.92,3.74-8.59,5.27
	C187.53,188.73,183.75,189.5,179.78,189.5z M272.24,107.95c1.52,0,2.78,0.57,3.78,1.72c1.07,1.07,1.6,2.25,1.6,3.55
	c0,1.22-0.42,2.41-1.26,3.55l-24.05,32.18l-6.53-9.05l21.87-29.2C268.95,108.87,270.48,107.95,272.24,107.95z M220.02,107.84
	c1.83,0,3.4,0.8,4.7,2.41l51.65,69.4c0.84,0.99,1.26,2.14,1.26,3.44c0,1.83-0.65,3.25-1.95,4.24c-1.3,0.99-2.6,1.49-3.89,1.49
	c-1.83,0-3.36-0.8-4.58-2.41l-51.77-69.29c-0.84-1.07-1.26-2.21-1.26-3.44c0-1.68,0.61-3.05,1.83-4.12
	C217.23,108.41,218.56,107.84,220.02,107.84z M219.21,188.81c-1.45,0-2.67-0.5-3.66-1.49c-0.99-1.07-1.49-2.25-1.49-3.55
	s0.46-2.6,1.37-3.89l24.28-32.87l6.3,9.28l-22.1,29.89C222.68,187.93,221.12,188.81,219.21,188.81z M317.78,188.35
	c-1.83,0-3.32-0.53-4.47-1.6c-1.07-1.15-1.6-2.56-1.6-4.24v-68.6h12.25v68.6c0,1.68-0.61,3.09-1.83,4.24
	C320.99,187.82,319.54,188.35,317.78,188.35z M291.78,119.18c-1.6,0-2.98-0.5-4.12-1.49c-1.15-1.07-1.72-2.44-1.72-4.12
	c0-1.6,0.57-2.9,1.72-3.89c1.15-0.99,2.52-1.49,4.12-1.49h52.11c1.6,0,2.94,0.53,4.01,1.6c1.15,0.99,1.72,2.29,1.72,3.89
	c0,1.68-0.57,3.02-1.72,4.01c-1.07,0.99-2.41,1.49-4.01,1.49H291.78z"/>
</svg>
