<svg viewBox="0 0 18 26" fill="none" xmlns="http://www.w3.org/2000/svg">
<g clip-path="url(#clip0_8_253)">
<path d="M9.76003 15.3884C9.81525 15.4727 9.87193 15.5555 9.92715 15.6398C10.0797 15.868 10.2323 16.0976 10.3864 16.3257C10.6116 16.6629 10.8369 17 11.0621 17.3372C11.3382 17.7499 11.6144 18.1641 11.8905 18.5768C12.1913 19.0273 12.4921 19.4778 12.7944 19.9283C13.0981 20.3832 13.4018 20.838 13.707 21.2929C13.9919 21.7187 14.2767 22.1445 14.5615 22.5717C14.8013 22.9307 15.0411 23.2882 15.2809 23.6471C15.4538 23.9058 15.6267 24.1645 15.7997 24.4246C15.8811 24.5467 15.9624 24.6687 16.0453 24.7908C16.0482 24.7966 16.0525 24.801 16.0554 24.8068C16.1819 24.9957 16.3519 25.1454 16.5772 25.2079C16.7864 25.266 17.064 25.2399 17.2486 25.1207C17.4346 25.0001 17.5988 24.8213 17.6496 24.599C17.7005 24.3781 17.6918 24.1223 17.5624 23.9276C17.5072 23.8433 17.4506 23.7605 17.3953 23.6762C17.2427 23.448 17.0901 23.2184 16.9361 22.9903C16.7109 22.6531 16.4856 22.316 16.2604 21.9788C15.9842 21.5661 15.7081 21.1519 15.432 20.7392C15.1312 20.2887 14.8304 19.8382 14.5281 19.3877C14.2244 18.9328 13.9206 18.478 13.6155 18.0231C13.3306 17.5973 13.0458 17.1715 12.761 16.7443C12.5212 16.3853 12.2814 16.0278 12.0416 15.6689C11.8687 15.4102 11.6957 15.1515 11.5228 14.8914C11.4414 14.7693 11.36 14.6472 11.2772 14.5252C11.2743 14.5194 11.2699 14.515 11.267 14.5092C11.1406 14.3203 10.9706 14.1706 10.7453 14.1081C10.5361 14.05 10.2585 14.0761 10.0739 14.1953C9.88792 14.3159 9.7237 14.4946 9.67284 14.717C9.62197 14.9379 9.62924 15.1937 9.76003 15.3884Z" fill="white"/>
<path d="M1.74542 24.6266C1.74542 24.4173 1.74542 24.2095 1.74542 24.0003C1.74542 23.4379 1.74542 22.874 1.74542 22.3116C1.74542 21.4774 1.74542 20.6418 1.74542 19.8077C1.74542 18.789 1.74542 17.7717 1.74542 16.753C1.74542 15.6413 1.74542 14.531 1.74542 13.4193C1.74542 12.2901 1.74542 11.1609 1.74542 10.0303C1.74542 8.98398 1.74542 7.93911 1.74542 6.89278C1.74542 6.00631 1.74542 5.11838 1.74542 4.23191C1.74542 3.59394 1.74542 2.95597 1.74542 2.318C1.74542 2.01718 1.74832 1.7149 1.74542 1.41408C1.74542 1.40101 1.74542 1.38793 1.74542 1.37485C1.45477 1.66549 1.16412 1.95614 0.873477 2.24679C1.68874 2.24534 2.50255 2.24534 3.31782 2.24534C4.75943 2.24388 6.20249 2.24388 7.6441 2.24534C8.38379 2.24679 9.12785 2.22208 9.86319 2.3209C9.78617 2.31073 9.70914 2.30056 9.63067 2.29039C10.3021 2.38194 10.9604 2.55923 11.5853 2.82227C11.5155 2.7932 11.4458 2.76414 11.3775 2.73508C11.9471 2.97777 12.4848 3.28876 12.9775 3.66515C12.9193 3.6201 12.8598 3.57359 12.8016 3.52854C13.2725 3.8933 13.6968 4.31329 14.0616 4.78414C14.0165 4.72601 13.97 4.66642 13.925 4.6083C14.281 5.07042 14.576 5.57615 14.8042 6.11385C14.7751 6.04409 14.7461 5.97434 14.717 5.90603C14.9466 6.45536 15.1021 7.03229 15.182 7.62376C15.1719 7.54674 15.1617 7.46971 15.1515 7.39124C15.2314 8.00741 15.23 8.63376 15.1472 9.24993C15.1573 9.17291 15.1675 9.09588 15.1777 9.01741C15.1006 9.57981 14.9539 10.1291 14.733 10.6508C14.762 10.5811 14.7911 10.5113 14.8202 10.443C14.6065 10.9459 14.3275 11.4167 13.9947 11.8483C14.0398 11.7902 14.0863 11.7306 14.1313 11.6725C13.755 12.1579 13.3146 12.5895 12.8292 12.9644C12.8874 12.9193 12.947 12.8728 13.0051 12.8278C12.4587 13.2478 11.8599 13.6009 11.2249 13.8698C11.2946 13.8407 11.3644 13.8116 11.4327 13.7826C11.1042 13.9206 10.7555 14.0543 10.4009 14.1023C10.4779 14.0921 10.5549 14.0819 10.6334 14.0718C10.5971 14.0761 10.5593 14.0805 10.5215 14.0805C10.0652 14.0834 9.62776 14.4801 9.64956 14.9524C9.66991 15.4233 10.0332 15.8273 10.5215 15.8244C11.1042 15.8215 11.6986 15.5584 12.2189 15.3288C13.0036 14.9815 13.7259 14.5019 14.3769 13.9424C15.1573 13.271 15.8258 12.4238 16.256 11.485C16.8009 10.2948 17.0436 8.97527 16.9245 7.66735C16.8053 6.35944 16.3853 5.0835 15.6325 4.0023C14.887 2.92981 13.8945 2.03898 12.7304 1.44751C11.4966 0.819712 10.1364 0.507266 8.75292 0.502906C7.86354 0.5 6.97416 0.5 6.08478 0.5C5.02537 0.5 3.96741 0.5 2.90801 0.501453C2.26132 0.501453 1.61463 0.502906 0.967937 0.502906C0.935966 0.502906 0.905448 0.502906 0.873477 0.502906C0.402629 0.502906 0.0015359 0.902546 0.0015359 1.37485C0.0015359 1.58411 0.0015359 1.79193 0.0015359 2.00119C0.0015359 2.56359 0.0015359 3.12745 0.0015359 3.68985C0.0015359 4.52401 0.0015359 5.35962 0.0015359 6.19377C0.0015359 7.21249 0.0015359 8.22976 0.0015359 9.24847C0.0015359 10.3602 0.0015359 11.4705 0.0015359 12.5822C0.0015359 13.7114 0.0015359 14.8405 0.0015359 15.9711C0.0015359 17.0175 0.0015359 18.0623 0.0015359 19.1087C0.0015359 19.9951 0.0015359 20.8831 0.0015359 21.7695C0.0015359 22.4075 0.0015359 23.0455 0.0015359 23.6835C0.0015359 23.9843 -0.00137056 24.2865 0.0015359 24.5874C0.0015359 24.6004 0.0015359 24.6135 0.0015359 24.6266C0.0015359 25.0829 0.402629 25.5203 0.873477 25.4985C1.34578 25.4782 1.74542 25.1163 1.74542 24.6266Z" fill="white"/>
<path d="M14.2025 24.1877C14.1109 24.0497 14.0179 23.9102 13.9264 23.7721C13.6837 23.4074 13.4424 23.044 13.1998 22.6793C12.8582 22.1663 12.5167 21.6518 12.1752 21.1388C11.7858 20.5532 11.3963 19.9675 11.0068 19.3819C10.6217 18.802 10.2352 18.2222 9.85005 17.6424C9.51726 17.141 9.18301 16.6396 8.85022 16.1383C8.62061 15.7939 8.39245 15.4494 8.16284 15.1065C8.10326 15.0178 8.04513 14.9292 7.98555 14.8405C7.97247 14.8202 7.95939 14.7998 7.94631 14.7809C7.94341 14.778 7.94195 14.7751 7.9405 14.7708C7.9405 14.7708 7.80389 14.5949 7.80389 14.5935C7.6484 14.4249 7.41152 14.345 7.18772 14.3377C7.18482 14.3377 7.18191 14.3377 7.17755 14.3377C6.68926 14.3275 6.19807 14.3377 5.70978 14.3377C5.12994 14.3377 4.55155 14.3377 3.97171 14.3377C3.93829 14.3377 3.90341 14.3377 3.86999 14.3377C3.39914 14.3377 2.99805 14.7374 2.99805 15.2097C2.99805 15.5221 2.99805 15.8345 2.99805 16.147C2.99805 16.8969 2.9995 17.6467 2.9995 18.3966C2.9995 19.3034 3.00095 20.2117 3.00095 21.1185C3.00095 21.9018 3.00241 22.6865 3.00241 23.4698C3.00241 23.8506 2.9995 24.2299 3.00241 24.6106C3.00241 24.6164 3.00241 24.6208 3.00241 24.6266C3.00241 24.8504 3.09977 25.0844 3.25818 25.2428C3.40931 25.3939 3.65782 25.5073 3.87435 25.4986C4.0996 25.4884 4.33357 25.4143 4.49052 25.2428C4.64747 25.0728 4.74629 24.862 4.74629 24.6266C4.74629 24.3142 4.74629 24.0017 4.74629 23.6893C4.74629 22.9394 4.74484 22.1895 4.74484 21.4397C4.74484 20.5329 4.74338 19.6246 4.74338 18.7178C4.74338 17.9345 4.74193 17.1497 4.74193 16.3664C4.74193 15.9857 4.74629 15.6064 4.74193 15.2256C4.74193 15.2198 4.74193 15.2155 4.74193 15.2097C4.45128 15.5003 4.16063 15.7909 3.86999 16.0816C4.24492 16.0816 4.6184 16.0816 4.99334 16.0816C5.58771 16.0816 6.18208 16.0816 6.77646 16.0816C6.91306 16.0816 7.05112 16.0816 7.18772 16.0816C6.93631 15.9377 6.68636 15.7939 6.43495 15.65C6.49017 15.7343 6.54685 15.8171 6.60207 15.9014C6.75321 16.1296 6.9058 16.3577 7.05693 16.5859C7.28218 16.923 7.50598 17.2616 7.73123 17.5988C8.00589 18.0115 8.2791 18.4228 8.55376 18.8355C8.85458 19.2874 9.15395 19.7379 9.45477 20.1899C9.75849 20.6462 10.0608 21.1011 10.3645 21.5574C10.6464 21.9817 10.9298 22.4075 11.2117 22.8319C11.4501 23.1908 11.6898 23.5498 11.9282 23.9087C12.0997 24.1674 12.2726 24.4261 12.4441 24.6833C12.5255 24.8054 12.6068 24.9289 12.6882 25.051C12.6911 25.0568 12.6955 25.0611 12.6984 25.0669C12.8248 25.2559 12.9948 25.4055 13.2201 25.468C13.4294 25.5262 13.7069 25.5 13.8915 25.3808C14.0775 25.2602 14.2417 25.0815 14.2926 24.8591C14.3405 24.6382 14.3318 24.3825 14.2025 24.1877Z" fill="white"/>
<path d="M2.99519 4.23772C2.99519 4.50947 2.99519 4.77977 2.99519 5.05153C2.99519 5.70258 2.99519 6.35508 2.99519 7.00613C2.99519 7.79378 2.99519 8.58289 2.99519 9.37054C2.99519 10.0521 2.99519 10.7322 2.99519 11.4138C2.99519 11.7437 2.99228 12.075 2.99519 12.4049C2.99519 12.4093 2.99519 12.4136 2.99519 12.418C2.99519 12.8888 3.39483 13.2899 3.86713 13.2899C4.06622 13.2899 4.26532 13.2899 4.46441 13.2899C4.92508 13.2899 5.38576 13.2899 5.84643 13.2885C6.36233 13.2885 6.87823 13.2885 7.39413 13.287C7.76034 13.287 8.12511 13.287 8.49132 13.2856C8.58142 13.2856 8.67298 13.287 8.76308 13.2826C9.05372 13.2681 9.34437 13.2289 9.63066 13.1795C9.98234 13.1199 10.3311 13.0298 10.6668 12.9063C11.1391 12.7319 11.6012 12.5168 12.0067 12.216C12.2508 12.0343 12.4877 11.8454 12.6926 11.6201C12.9077 11.3847 13.1053 11.126 13.2652 10.8499C13.6358 10.212 13.8145 9.50569 13.8799 8.77617C13.9119 8.42885 13.909 8.07571 13.8727 7.72839C13.8334 7.34473 13.7738 6.96108 13.6532 6.59486C13.4454 5.96271 13.1141 5.38577 12.6548 4.9033C12.447 4.68531 12.2072 4.49494 11.9616 4.32055C11.7844 4.19412 11.5969 4.08513 11.4022 3.98921C10.9923 3.78721 10.5593 3.6259 10.1146 3.52272C9.78034 3.4457 9.43738 3.39629 9.09587 3.36868C9.01013 3.36142 8.92439 3.35706 8.83719 3.35706C8.56544 3.35706 8.29368 3.35706 8.02193 3.35851C7.53655 3.35851 7.05117 3.35996 6.56579 3.35996C6.05715 3.35996 5.54852 3.36142 5.03989 3.36142C4.69838 3.36142 4.35542 3.36142 4.01391 3.36287C3.9645 3.36287 3.91654 3.36287 3.86713 3.36287C3.64333 3.36287 3.40936 3.46024 3.25096 3.61864C3.09837 3.77268 2.98502 4.02118 2.99519 4.23772C3.00536 4.46297 3.07948 4.69694 3.25096 4.85389C3.42099 5.01084 3.63171 5.10966 3.86713 5.10966C4.11854 5.10966 4.36849 5.10966 4.6199 5.1082C5.17504 5.1082 5.72872 5.10675 6.28386 5.10675C6.85353 5.10675 7.42465 5.1053 7.99432 5.1053C8.28496 5.1053 8.57561 5.10239 8.86626 5.10384C9.00141 5.10384 9.13656 5.11692 9.27026 5.13146C9.30513 5.13582 9.34001 5.14017 9.37489 5.14453C9.29787 5.13436 9.22085 5.12419 9.14237 5.11402C9.48679 5.16052 9.82539 5.23754 10.1553 5.34944C10.2686 5.38722 10.382 5.43082 10.4924 5.47733C10.4227 5.44826 10.3529 5.4192 10.2846 5.39013C10.613 5.52964 10.9255 5.70548 11.2074 5.92347C11.1493 5.87842 11.0897 5.83191 11.0316 5.78686C11.2641 5.96707 11.4734 6.17488 11.6536 6.4074C11.6085 6.34927 11.562 6.28968 11.517 6.23155C11.6943 6.46262 11.8396 6.71403 11.9529 6.98142C11.9239 6.91167 11.8948 6.84191 11.8657 6.77361C12.0067 7.10786 12.0968 7.46099 12.1462 7.81994C12.136 7.74292 12.1259 7.6659 12.1157 7.58742C12.1767 8.051 12.1782 8.52331 12.1157 8.98689C12.1259 8.90987 12.136 8.83284 12.1462 8.75437C12.0968 9.11041 12.0082 9.45919 11.8686 9.79053C11.8977 9.72077 11.9268 9.65102 11.9558 9.58271C11.841 9.85302 11.6928 10.1088 11.5126 10.3428C11.5576 10.2846 11.6042 10.225 11.6492 10.1669C11.4632 10.4082 11.2452 10.6232 11.0054 10.8092C11.0635 10.7642 11.1231 10.7177 11.1813 10.6726C10.8848 10.9008 10.5578 11.0854 10.2149 11.2307C10.2846 11.2016 10.3544 11.1726 10.4227 11.1435C10.0419 11.3033 9.64374 11.4181 9.23683 11.4908C9.14673 11.5068 9.05518 11.5213 8.96508 11.5344C9.0421 11.5242 9.11912 11.5141 9.19759 11.5039C9.02757 11.5271 8.85463 11.546 8.68315 11.5475C8.47098 11.5504 8.2588 11.5475 8.04663 11.5475C7.5162 11.5475 6.98577 11.5475 6.45534 11.5489C5.89584 11.5489 5.3349 11.5504 4.7754 11.5504C4.47749 11.5504 4.17957 11.5475 3.88166 11.5504C3.8773 11.5504 3.87294 11.5504 3.86858 11.5504C4.15923 11.841 4.44988 12.1317 4.74052 12.4223C4.74052 12.1506 4.74052 11.8803 4.74052 11.6085C4.74052 10.9575 4.74052 10.305 4.74052 9.65392C4.74052 8.86627 4.74052 8.07716 4.74052 7.28951C4.74052 6.60794 4.74052 5.92783 4.74052 5.24626C4.74052 4.91638 4.74343 4.58504 4.74052 4.25515C4.74052 4.25079 4.74052 4.24644 4.74052 4.24208C4.74052 4.01828 4.64316 3.78431 4.48475 3.6259C4.33362 3.47477 4.08511 3.36142 3.86858 3.37013C3.64333 3.38031 3.40936 3.45442 3.25241 3.6259C3.09401 3.79157 2.99519 4.00229 2.99519 4.23772Z" fill="white"/>
</g>
<defs>
<clipPath id="clip0_8_253">
<rect width="17.6757" height="25" fill="white" transform="translate(0 0.5)"/>
</clipPath>
</defs>
</svg>
