<svg viewBox="0 0 171 40" fill="none" xmlns="http://www.w3.org/2000/svg">
<g clip-path="url(#clip0_8_239)">
<path d="M9.76003 22.3884C9.81525 22.4727 9.87193 22.5555 9.92715 22.6398C10.0797 22.868 10.2323 23.0976 10.3864 23.3257C10.6116 23.6629 10.8369 24 11.0621 24.3372C11.3382 24.7499 11.6144 25.1641 11.8905 25.5768C12.1913 26.0273 12.4921 26.4778 12.7944 26.9283C13.0981 27.3832 13.4018 27.838 13.707 28.2929C13.9919 28.7187 14.2767 29.1445 14.5615 29.5717C14.8013 29.9307 15.0411 30.2882 15.2809 30.6471C15.4538 30.9058 15.6267 31.1645 15.7997 31.4246C15.8811 31.5467 15.9624 31.6687 16.0453 31.7908C16.0482 31.7966 16.0525 31.801 16.0554 31.8068C16.1819 31.9957 16.3519 32.1454 16.5772 32.2079C16.7864 32.266 17.064 32.2399 17.2486 32.1207C17.4346 32.0001 17.5988 31.8213 17.6496 31.599C17.7005 31.3781 17.6918 31.1223 17.5624 30.9276C17.5072 30.8433 17.4506 30.7605 17.3953 30.6762C17.2427 30.448 17.0901 30.2184 16.9361 29.9903C16.7109 29.6531 16.4856 29.316 16.2604 28.9788C15.9842 28.5661 15.7081 28.1519 15.432 27.7392C15.1312 27.2887 14.8304 26.8382 14.5281 26.3877C14.2244 25.9328 13.9206 25.478 13.6155 25.0231C13.3306 24.5973 13.0458 24.1715 12.761 23.7443C12.5212 23.3853 12.2814 23.0278 12.0416 22.6689C11.8687 22.4102 11.6957 22.1515 11.5228 21.8914C11.4414 21.7693 11.36 21.6472 11.2772 21.5252C11.2743 21.5194 11.2699 21.515 11.267 21.5092C11.1406 21.3203 10.9706 21.1706 10.7453 21.1081C10.5361 21.05 10.2585 21.0761 10.0739 21.1953C9.88792 21.3159 9.7237 21.4946 9.67284 21.717C9.62197 21.9379 9.62924 22.1937 9.76003 22.3884Z" fill="white"/>
<path d="M1.74542 31.6266C1.74542 31.4173 1.74542 31.2095 1.74542 31.0003C1.74542 30.4379 1.74542 29.874 1.74542 29.3116C1.74542 28.4774 1.74542 27.6418 1.74542 26.8077C1.74542 25.789 1.74542 24.7717 1.74542 23.753C1.74542 22.6413 1.74542 21.531 1.74542 20.4193C1.74542 19.2901 1.74542 18.1609 1.74542 17.0303C1.74542 15.984 1.74542 14.9391 1.74542 13.8928C1.74542 13.0063 1.74542 12.1184 1.74542 11.2319C1.74542 10.5939 1.74542 9.95597 1.74542 9.318C1.74542 9.01718 1.74832 8.7149 1.74542 8.41408C1.74542 8.40101 1.74542 8.38793 1.74542 8.37485C1.45477 8.66549 1.16412 8.95614 0.873477 9.24679C1.68874 9.24534 2.50255 9.24534 3.31782 9.24534C4.75943 9.24388 6.20249 9.24388 7.6441 9.24534C8.38379 9.24679 9.12785 9.22208 9.86319 9.3209C9.78617 9.31073 9.70914 9.30056 9.63067 9.29039C10.3021 9.38194 10.9604 9.55923 11.5853 9.82227C11.5155 9.7932 11.4458 9.76414 11.3775 9.73508C11.9471 9.97777 12.4848 10.2888 12.9775 10.6651C12.9193 10.6201 12.8598 10.5736 12.8016 10.5285C13.2725 10.8933 13.6968 11.3133 14.0616 11.7841C14.0165 11.726 13.97 11.6664 13.925 11.6083C14.281 12.0704 14.576 12.5761 14.8042 13.1138C14.7751 13.0441 14.7461 12.9743 14.717 12.906C14.9466 13.4554 15.1021 14.0323 15.182 14.6238C15.1719 14.5467 15.1617 14.4697 15.1515 14.3912C15.2314 15.0074 15.23 15.6338 15.1472 16.2499C15.1573 16.1729 15.1675 16.0959 15.1777 16.0174C15.1006 16.5798 14.9539 17.1291 14.733 17.6508C14.762 17.5811 14.7911 17.5113 14.8202 17.443C14.6065 17.9459 14.3275 18.4167 13.9947 18.8483C14.0398 18.7902 14.0863 18.7306 14.1313 18.6725C13.755 19.1579 13.3146 19.5895 12.8292 19.9644C12.8874 19.9193 12.947 19.8728 13.0051 19.8278C12.4587 20.2478 11.8599 20.6009 11.2249 20.8698C11.2946 20.8407 11.3644 20.8116 11.4327 20.7826C11.1042 20.9206 10.7555 21.0543 10.4009 21.1023C10.4779 21.0921 10.5549 21.0819 10.6334 21.0718C10.5971 21.0761 10.5593 21.0805 10.5215 21.0805C10.0652 21.0834 9.62776 21.4801 9.64956 21.9524C9.66991 22.4233 10.0332 22.8273 10.5215 22.8244C11.1042 22.8215 11.6986 22.5584 12.2189 22.3288C13.0036 21.9815 13.7259 21.5019 14.3769 20.9424C15.1573 20.271 15.8258 19.4238 16.256 18.485C16.8009 17.2948 17.0436 15.9753 16.9245 14.6674C16.8053 13.3594 16.3853 12.0835 15.6325 11.0023C14.887 9.92981 13.8945 9.03898 12.7304 8.44751C11.4966 7.81971 10.1364 7.50727 8.75292 7.50291C7.86354 7.5 6.97416 7.5 6.08478 7.5C5.02537 7.5 3.96741 7.5 2.90801 7.50145C2.26132 7.50145 1.61463 7.50291 0.967937 7.50291C0.935966 7.50291 0.905448 7.50291 0.873477 7.50291C0.402629 7.50291 0.0015359 7.90255 0.0015359 8.37485C0.0015359 8.58411 0.0015359 8.79193 0.0015359 9.00119C0.0015359 9.56359 0.0015359 10.1274 0.0015359 10.6899C0.0015359 11.524 0.0015359 12.3596 0.0015359 13.1938C0.0015359 14.2125 0.0015359 15.2298 0.0015359 16.2485C0.0015359 17.3602 0.0015359 18.4705 0.0015359 19.5822C0.0015359 20.7114 0.0015359 21.8405 0.0015359 22.9711C0.0015359 24.0175 0.0015359 25.0623 0.0015359 26.1087C0.0015359 26.9951 0.0015359 27.8831 0.0015359 28.7695C0.0015359 29.4075 0.0015359 30.0455 0.0015359 30.6835C0.0015359 30.9843 -0.00137056 31.2865 0.0015359 31.5874C0.0015359 31.6004 0.0015359 31.6135 0.0015359 31.6266C0.0015359 32.0829 0.402629 32.5203 0.873477 32.4985C1.34578 32.4782 1.74542 32.1163 1.74542 31.6266Z" fill="white"/>
<path d="M14.2025 31.1877C14.1109 31.0497 14.0179 30.9102 13.9264 30.7721C13.6837 30.4074 13.4424 30.044 13.1998 29.6793C12.8582 29.1663 12.5167 28.6518 12.1752 28.1388C11.7858 27.5532 11.3963 26.9675 11.0068 26.3819C10.6217 25.802 10.2352 25.2222 9.85005 24.6424C9.51726 24.141 9.18301 23.6396 8.85022 23.1383C8.62061 22.7939 8.39245 22.4494 8.16284 22.1065C8.10326 22.0178 8.04513 21.9292 7.98555 21.8405C7.97247 21.8202 7.95939 21.7998 7.94631 21.7809C7.94341 21.778 7.94195 21.7751 7.9405 21.7708C7.9405 21.7708 7.80389 21.5949 7.80389 21.5935C7.6484 21.4249 7.41152 21.345 7.18772 21.3377C7.18482 21.3377 7.18191 21.3377 7.17755 21.3377C6.68926 21.3275 6.19807 21.3377 5.70978 21.3377C5.12994 21.3377 4.55155 21.3377 3.97171 21.3377C3.93829 21.3377 3.90341 21.3377 3.86999 21.3377C3.39914 21.3377 2.99805 21.7374 2.99805 22.2097C2.99805 22.5221 2.99805 22.8345 2.99805 23.147C2.99805 23.8969 2.9995 24.6467 2.9995 25.3966C2.9995 26.3034 3.00095 27.2117 3.00095 28.1185C3.00095 28.9018 3.00241 29.6865 3.00241 30.4698C3.00241 30.8506 2.9995 31.2299 3.00241 31.6106C3.00241 31.6164 3.00241 31.6208 3.00241 31.6266C3.00241 31.8504 3.09977 32.0844 3.25818 32.2428C3.40931 32.3939 3.65782 32.5073 3.87435 32.4986C4.0996 32.4884 4.33357 32.4143 4.49052 32.2428C4.64747 32.0728 4.74629 31.862 4.74629 31.6266C4.74629 31.3142 4.74629 31.0017 4.74629 30.6893C4.74629 29.9394 4.74484 29.1895 4.74484 28.4397C4.74484 27.5329 4.74338 26.6246 4.74338 25.7178C4.74338 24.9345 4.74193 24.1497 4.74193 23.3664C4.74193 22.9857 4.74629 22.6064 4.74193 22.2256C4.74193 22.2198 4.74193 22.2155 4.74193 22.2097C4.45128 22.5003 4.16063 22.7909 3.86999 23.0816C4.24492 23.0816 4.6184 23.0816 4.99334 23.0816C5.58771 23.0816 6.18208 23.0816 6.77646 23.0816C6.91306 23.0816 7.05112 23.0816 7.18772 23.0816C6.93631 22.9377 6.68636 22.7939 6.43495 22.65C6.49017 22.7343 6.54685 22.8171 6.60207 22.9014C6.75321 23.1296 6.9058 23.3577 7.05693 23.5859C7.28218 23.923 7.50598 24.2616 7.73123 24.5988C8.00589 25.0115 8.2791 25.4228 8.55376 25.8355C8.85458 26.2874 9.15395 26.7379 9.45477 27.1899C9.75849 27.6462 10.0608 28.1011 10.3645 28.5574C10.6464 28.9817 10.9298 29.4075 11.2117 29.8319C11.4501 30.1908 11.6898 30.5498 11.9282 30.9087C12.0997 31.1674 12.2726 31.4261 12.4441 31.6833C12.5255 31.8054 12.6068 31.9289 12.6882 32.051C12.6911 32.0568 12.6955 32.0611 12.6984 32.0669C12.8248 32.2559 12.9948 32.4055 13.2201 32.468C13.4294 32.5262 13.7069 32.5 13.8915 32.3808C14.0775 32.2602 14.2417 32.0815 14.2926 31.8591C14.3405 31.6382 14.3318 31.3825 14.2025 31.1877Z" fill="white"/>
<path d="M2.99519 11.2377C2.99519 11.5095 2.99519 11.7798 2.99519 12.0515C2.99519 12.7026 2.99519 13.3551 2.99519 14.0061C2.99519 14.7938 2.99519 15.5829 2.99519 16.3705C2.99519 17.0521 2.99519 17.7322 2.99519 18.4138C2.99519 18.7437 2.99228 19.075 2.99519 19.4049C2.99519 19.4093 2.99519 19.4136 2.99519 19.418C2.99519 19.8888 3.39483 20.2899 3.86713 20.2899C4.06622 20.2899 4.26532 20.2899 4.46441 20.2899C4.92508 20.2899 5.38576 20.2899 5.84643 20.2885C6.36233 20.2885 6.87823 20.2885 7.39413 20.287C7.76034 20.287 8.12511 20.287 8.49132 20.2856C8.58142 20.2856 8.67298 20.287 8.76308 20.2826C9.05372 20.2681 9.34437 20.2289 9.63066 20.1795C9.98234 20.1199 10.3311 20.0298 10.6668 19.9063C11.1391 19.7319 11.6012 19.5168 12.0067 19.216C12.2508 19.0343 12.4877 18.8454 12.6926 18.6201C12.9077 18.3847 13.1053 18.126 13.2652 17.8499C13.6358 17.212 13.8145 16.5057 13.8799 15.7762C13.9119 15.4288 13.909 15.0757 13.8727 14.7284C13.8334 14.3447 13.7738 13.9611 13.6532 13.5949C13.4454 12.9627 13.1141 12.3858 12.6548 11.9033C12.447 11.6853 12.2072 11.4949 11.9616 11.3206C11.7844 11.1941 11.5969 11.0851 11.4022 10.9892C10.9923 10.7872 10.5593 10.6259 10.1146 10.5227C9.78034 10.4457 9.43738 10.3963 9.09587 10.3687C9.01013 10.3614 8.92439 10.3571 8.83719 10.3571C8.56544 10.3571 8.29368 10.3571 8.02193 10.3585C7.53655 10.3585 7.05117 10.36 6.56579 10.36C6.05715 10.36 5.54852 10.3614 5.03989 10.3614C4.69838 10.3614 4.35542 10.3614 4.01391 10.3629C3.9645 10.3629 3.91654 10.3629 3.86713 10.3629C3.64333 10.3629 3.40936 10.4602 3.25096 10.6186C3.09837 10.7727 2.98502 11.0212 2.99519 11.2377C3.00536 11.463 3.07948 11.6969 3.25096 11.8539C3.42099 12.0108 3.63171 12.1097 3.86713 12.1097C4.11854 12.1097 4.36849 12.1097 4.6199 12.1082C5.17504 12.1082 5.72872 12.1068 6.28386 12.1068C6.85353 12.1068 7.42465 12.1053 7.99432 12.1053C8.28496 12.1053 8.57561 12.1024 8.86626 12.1038C9.00141 12.1038 9.13656 12.1169 9.27026 12.1315C9.30513 12.1358 9.34001 12.1402 9.37489 12.1445C9.29787 12.1344 9.22085 12.1242 9.14237 12.114C9.48679 12.1605 9.82539 12.2375 10.1553 12.3494C10.2686 12.3872 10.382 12.4308 10.4924 12.4773C10.4227 12.4483 10.3529 12.4192 10.2846 12.3901C10.613 12.5296 10.9255 12.7055 11.2074 12.9235C11.1493 12.8784 11.0897 12.8319 11.0316 12.7869C11.2641 12.9671 11.4734 13.1749 11.6536 13.4074C11.6085 13.3493 11.562 13.2897 11.517 13.2316C11.6943 13.4626 11.8396 13.714 11.9529 13.9814C11.9239 13.9117 11.8948 13.8419 11.8657 13.7736C12.0067 14.1079 12.0968 14.461 12.1462 14.8199C12.136 14.7429 12.1259 14.6659 12.1157 14.5874C12.1767 15.051 12.1782 15.5233 12.1157 15.9869C12.1259 15.9099 12.136 15.8328 12.1462 15.7544C12.0968 16.1104 12.0082 16.4592 11.8686 16.7905C11.8977 16.7208 11.9268 16.651 11.9558 16.5827C11.841 16.853 11.6928 17.1088 11.5126 17.3428C11.5576 17.2846 11.6042 17.225 11.6492 17.1669C11.4632 17.4082 11.2452 17.6232 11.0054 17.8092C11.0635 17.7642 11.1231 17.7177 11.1813 17.6726C10.8848 17.9008 10.5578 18.0854 10.2149 18.2307C10.2846 18.2016 10.3544 18.1726 10.4227 18.1435C10.0419 18.3033 9.64374 18.4181 9.23683 18.4908C9.14673 18.5068 9.05518 18.5213 8.96508 18.5344C9.0421 18.5242 9.11912 18.5141 9.19759 18.5039C9.02757 18.5271 8.85463 18.546 8.68315 18.5475C8.47098 18.5504 8.2588 18.5475 8.04663 18.5475C7.5162 18.5475 6.98577 18.5475 6.45534 18.5489C5.89584 18.5489 5.3349 18.5504 4.7754 18.5504C4.47749 18.5504 4.17957 18.5475 3.88166 18.5504C3.8773 18.5504 3.87294 18.5504 3.86858 18.5504C4.15923 18.841 4.44988 19.1317 4.74052 19.4223C4.74052 19.1506 4.74052 18.8803 4.74052 18.6085C4.74052 17.9575 4.74052 17.305 4.74052 16.6539C4.74052 15.8663 4.74052 15.0772 4.74052 14.2895C4.74052 13.6079 4.74052 12.9278 4.74052 12.2463C4.74052 11.9164 4.74343 11.585 4.74052 11.2552C4.74052 11.2508 4.74052 11.2464 4.74052 11.2421C4.74052 11.0183 4.64316 10.7843 4.48475 10.6259C4.33362 10.4748 4.08511 10.3614 3.86858 10.3701C3.64333 10.3803 3.40936 10.4544 3.25241 10.6259C3.09401 10.7916 2.99519 11.0023 2.99519 11.2377Z" fill="white"/>
</g>
<path d="M33.6118 15.648C33.8891 15.648 34.1131 15.744 34.2838 15.936C34.4758 16.128 34.5718 16.3627 34.5718 16.64V31.04C34.5718 31.296 34.4758 31.52 34.2838 31.712C34.0918 31.904 33.8678 32 33.6118 32C33.3344 32 33.0998 31.904 32.9078 31.712C32.7371 31.52 32.6518 31.296 32.6518 31.04V27.232L33.1958 26.976C33.1958 27.5733 33.0251 28.1813 32.6838 28.8C32.3638 29.4187 31.9158 29.9947 31.3398 30.528C30.7638 31.0613 30.0811 31.4987 29.2918 31.84C28.5238 32.16 27.6918 32.32 26.7958 32.32C25.3451 32.32 24.0438 31.9467 22.8918 31.2C21.7611 30.4533 20.8651 29.4293 20.2038 28.128C19.5638 26.8267 19.2438 25.3653 19.2438 23.744C19.2438 22.08 19.5744 20.6187 20.2358 19.36C20.8971 18.08 21.7931 17.0773 22.9238 16.352C24.0544 15.6267 25.3344 15.264 26.7638 15.264C27.6811 15.264 28.5344 15.424 29.3238 15.744C30.1344 16.064 30.8384 16.5013 31.4358 17.056C32.0331 17.6107 32.4918 18.2507 32.8118 18.976C33.1531 19.68 33.3238 20.416 33.3238 21.184L32.6518 20.704V16.64C32.6518 16.3627 32.7371 16.128 32.9078 15.936C33.0998 15.744 33.3344 15.648 33.6118 15.648ZM26.9558 30.528C28.0864 30.528 29.0891 30.24 29.9638 29.664C30.8384 29.0667 31.5211 28.256 32.0118 27.232C32.5238 26.1867 32.7798 25.024 32.7798 23.744C32.7798 22.4853 32.5238 21.3547 32.0118 20.352C31.5211 19.3493 30.8384 18.5493 29.9638 17.952C29.0891 17.3547 28.0864 17.056 26.9558 17.056C25.8464 17.056 24.8438 17.344 23.9478 17.92C23.0731 18.496 22.3798 19.2853 21.8678 20.288C21.3771 21.2907 21.1318 22.4427 21.1318 23.744C21.1318 25.024 21.3771 26.1867 21.8678 27.232C22.3798 28.256 23.0731 29.0667 23.9478 29.664C24.8224 30.24 25.8251 30.528 26.9558 30.528ZM38.851 15.296C39.0217 15.296 39.1924 15.3493 39.363 15.456C39.5337 15.5627 39.6617 15.7227 39.747 15.936L45.347 29.248L44.931 29.504L50.659 15.936C50.8297 15.5093 51.139 15.3067 51.587 15.328C51.8004 15.328 52.003 15.4027 52.195 15.552C52.387 15.68 52.483 15.872 52.483 16.128C52.483 16.256 52.4617 16.3627 52.419 16.448C52.3977 16.512 52.3764 16.5867 52.355 16.672L46.083 31.392C45.9124 31.776 45.6244 31.9787 45.219 32C45.027 32.0213 44.835 31.9787 44.643 31.872C44.4724 31.744 44.3444 31.584 44.259 31.392L37.955 16.672C37.9337 16.6293 37.9124 16.5653 37.891 16.48C37.8697 16.3947 37.859 16.3093 37.859 16.224C37.859 15.9893 37.9444 15.776 38.115 15.584C38.2857 15.392 38.531 15.296 38.851 15.296ZM58.0285 31.04C58.0285 31.296 57.9325 31.52 57.7405 31.712C57.5485 31.904 57.3245 32 57.0685 32C56.7912 32 56.5565 31.904 56.3645 31.712C56.1939 31.52 56.1085 31.296 56.1085 31.04V16.32C56.1085 16.064 56.1939 15.84 56.3645 15.648C56.5565 15.456 56.7912 15.36 57.0685 15.36C57.3459 15.36 57.5699 15.456 57.7405 15.648C57.9325 15.84 58.0285 16.064 58.0285 16.32V31.04ZM57.0685 13.216C56.6205 13.216 56.2792 13.12 56.0445 12.928C55.8312 12.7147 55.7245 12.416 55.7245 12.032V11.712C55.7245 11.328 55.8419 11.04 56.0765 10.848C56.3325 10.6347 56.6739 10.528 57.1005 10.528C57.5059 10.528 57.8152 10.6347 58.0285 10.848C58.2632 11.04 58.3805 11.328 58.3805 11.712V12.032C58.3805 12.416 58.2632 12.7147 58.0285 12.928C57.8152 13.12 57.4952 13.216 57.0685 13.216ZM70.7283 15.264C72.1363 15.264 73.2563 15.552 74.0883 16.128C74.9416 16.6827 75.5496 17.4507 75.9123 18.432C76.2963 19.392 76.4883 20.4587 76.4883 21.632V31.04C76.4883 31.296 76.3923 31.52 76.2003 31.712C76.0083 31.904 75.7843 32 75.5283 32C75.2296 32 74.9949 31.904 74.8243 31.712C74.6536 31.52 74.5683 31.296 74.5683 31.04V21.728C74.5683 20.8747 74.4296 20.096 74.1523 19.392C73.8749 18.688 73.4163 18.1227 72.7763 17.696C72.1576 17.2693 71.3363 17.056 70.3123 17.056C69.3949 17.056 68.5203 17.2693 67.6883 17.696C66.8776 18.1227 66.2163 18.688 65.7043 19.392C65.1923 20.096 64.9363 20.8747 64.9363 21.728V31.04C64.9363 31.296 64.8403 31.52 64.6483 31.712C64.4563 31.904 64.2323 32 63.9763 32C63.6776 32 63.4429 31.904 63.2723 31.712C63.1016 31.52 63.0163 31.296 63.0163 31.04V16.704C63.0163 16.448 63.1016 16.224 63.2723 16.032C63.4643 15.84 63.6989 15.744 63.9763 15.744C64.2536 15.744 64.4776 15.84 64.6483 16.032C64.8403 16.224 64.9363 16.448 64.9363 16.704V19.392L64.2003 20.544C64.2429 19.8613 64.4563 19.2107 64.8403 18.592C65.2456 17.952 65.7576 17.3867 66.3763 16.896C66.9949 16.384 67.6776 15.9893 68.4243 15.712C69.1923 15.4133 69.9603 15.264 70.7283 15.264Z" fill="white"/>
<path d="M107.13 9.6C107.557 9.6 107.898 9.74933 108.154 10.048C108.432 10.3253 108.57 10.6773 108.57 11.104V30.368C108.57 30.8373 108.41 31.232 108.09 31.552C107.792 31.8507 107.408 32 106.938 32C106.725 32 106.49 31.9573 106.234 31.872C106 31.7867 105.818 31.6693 105.69 31.52L92.5383 14.464L93.2743 14.048V30.528C93.2743 30.9333 93.1356 31.2853 92.8583 31.584C92.5809 31.8613 92.2289 32 91.8023 32C91.3543 32 90.9916 31.8613 90.7143 31.584C90.4583 31.2853 90.3303 30.9333 90.3303 30.528V11.232C90.3303 10.7413 90.4903 10.3467 90.8103 10.048C91.1303 9.74933 91.5143 9.6 91.9623 9.6C92.1969 9.6 92.4423 9.65333 92.6983 9.76C92.9756 9.84533 93.1783 9.984 93.3063 10.176L106.138 26.88L105.658 27.328V11.104C105.658 10.6773 105.797 10.3253 106.074 10.048C106.352 9.74933 106.704 9.6 107.13 9.6ZM121.287 32.32C119.516 32.32 117.98 31.9573 116.679 31.232C115.378 30.4853 114.364 29.472 113.639 28.192C112.935 26.8907 112.583 25.408 112.583 23.744C112.583 21.8667 112.956 20.2667 113.703 18.944C114.471 17.6 115.463 16.576 116.679 15.872C117.895 15.1467 119.186 14.784 120.551 14.784C121.596 14.784 122.588 14.9973 123.527 15.424C124.466 15.8293 125.298 16.4053 126.023 17.152C126.77 17.8773 127.356 18.7413 127.783 19.744C128.21 20.7253 128.434 21.8027 128.455 22.976C128.434 23.4027 128.263 23.7547 127.943 24.032C127.623 24.3093 127.25 24.448 126.823 24.448H114.375L113.607 21.728H125.639L125.031 22.304V21.504C124.988 20.7573 124.743 20.1067 124.295 19.552C123.847 18.976 123.292 18.5387 122.631 18.24C121.97 17.92 121.276 17.76 120.551 17.76C119.911 17.76 119.292 17.8667 118.695 18.08C118.119 18.272 117.596 18.592 117.127 19.04C116.679 19.488 116.316 20.0853 116.039 20.832C115.783 21.5573 115.655 22.464 115.655 23.552C115.655 24.7253 115.9 25.7493 116.391 26.624C116.882 27.4987 117.543 28.1813 118.375 28.672C119.207 29.1413 120.124 29.376 121.127 29.376C121.916 29.376 122.567 29.3013 123.079 29.152C123.591 28.9813 124.018 28.7787 124.359 28.544C124.7 28.3093 124.999 28.0853 125.255 27.872C125.575 27.68 125.895 27.584 126.215 27.584C126.599 27.584 126.919 27.7227 127.175 28C127.431 28.256 127.559 28.5653 127.559 28.928C127.559 29.3973 127.324 29.824 126.855 30.208C126.279 30.7627 125.479 31.2533 124.455 31.68C123.452 32.1067 122.396 32.32 121.287 32.32ZM147.12 9.536C147.546 9.536 147.898 9.696 148.176 10.016C148.474 10.3147 148.624 10.6453 148.624 11.008C148.624 11.3493 148.506 11.68 148.272 12L141.552 20.992L139.728 18.464L145.84 10.304C146.202 9.792 146.629 9.536 147.12 9.536ZM132.528 9.504C133.04 9.504 133.477 9.728 133.84 10.176L148.272 29.568C148.506 29.8453 148.624 30.1653 148.624 30.528C148.624 31.04 148.442 31.4347 148.08 31.712C147.717 31.9893 147.354 32.128 146.992 32.128C146.48 32.128 146.053 31.904 145.712 31.456L131.248 12.096C131.013 11.7973 130.896 11.4773 130.896 11.136C130.896 10.6667 131.066 10.2827 131.408 9.984C131.749 9.664 132.122 9.504 132.528 9.504ZM132.304 32.128C131.898 32.128 131.557 31.9893 131.28 31.712C131.002 31.4133 130.864 31.0827 130.864 30.72C130.864 30.3573 130.992 29.9947 131.248 29.632L138.032 20.448L139.792 23.04L133.616 31.392C133.274 31.8827 132.837 32.128 132.304 32.128ZM159.845 32C159.333 32 158.917 31.8507 158.597 31.552C158.298 31.232 158.149 30.8373 158.149 30.368V11.2H161.573V30.368C161.573 30.8373 161.402 31.232 161.061 31.552C160.741 31.8507 160.336 32 159.845 32ZM152.581 12.672C152.133 12.672 151.749 12.5333 151.429 12.256C151.109 11.9573 150.949 11.5733 150.949 11.104C150.949 10.656 151.109 10.2933 151.429 10.016C151.749 9.73867 152.133 9.6 152.581 9.6H167.141C167.589 9.6 167.962 9.74933 168.261 10.048C168.581 10.3253 168.741 10.688 168.741 11.136C168.741 11.6053 168.581 11.9787 168.261 12.256C167.962 12.5333 167.589 12.672 167.141 12.672H152.581Z" fill="#A62130"/>
<defs>
<clipPath id="clip0_8_239">
<rect width="17.6757" height="25" fill="white" transform="translate(0 7.5)"/>
</clipPath>
</defs>
</svg>
